<?xml version="1.0" standalone="no"?>
<!DOCTYPE svg PUBLIC "-//W3C//DTD SVG 20010904//EN"
 "http://www.w3.org/TR/2001/REC-SVG-20010904/DTD/svg10.dtd">
<svg version="1.0" xmlns="http://www.w3.org/2000/svg"
 width="771.000000pt" height="771.000000pt" viewBox="0 0 771.000000 771.000000"
 preserveAspectRatio="xMidYMid meet">
<metadata>
Created by potrace 1.11, written by Peter Selinger 2001-2013
</metadata>
<g transform="translate(0.000000,771.000000) scale(0.100000,-0.100000)"
fill="#000000" stroke="none">
<path d="M3665 6510 c-640 -57 -1208 -321 -1655 -769 -85 -85 -185 -198 -239
-271 -52 -69 -97 -126 -101 -128 -6 -2 -70 46 -104 79 -6 5 8 32 32 68 56 79
62 112 29 145 -33 33 -71 33 -102 1 -30 -29 -30 -36 -6 -114 10 -34 16 -61 12
-61 -11 0 -90 109 -116 160 -40 80 -40 81 20 143 45 46 55 63 55 90 0 66 -82
97 -123 46 -16 -20 -18 -34 -14 -81 3 -32 4 -58 3 -58 -2 0 -17 22 -35 49 -17
27 -54 70 -83 95 l-51 46 17 58 c23 85 21 117 -10 141 -34 26 -68 27 -94 1
-29 -29 -25 -74 11 -126 l30 -44 -55 27 c-54 26 -57 30 -73 86 -21 75 -46 107
-84 107 -35 0 -79 -39 -79 -69 0 -32 41 -68 100 -86 54 -18 190 -81 190 -90 0
-2 -14 1 -30 7 -43 14 -77 3 -96 -33 -20 -40 -5 -82 37 -99 27 -12 37 -9 106
25 l77 38 38 -44 c41 -46 115 -185 105 -195 -3 -3 -35 -1 -72 5 -70 10 -89 8
-117 -17 -25 -21 -23 -77 2 -102 37 -37 77 -24 151 47 l46 44 36 -59 c20 -32
66 -91 102 -130 l67 -72 -42 15 c-88 31 -150 9 -150 -53 0 -35 37 -72 73 -72
14 0 54 19 90 44 55 38 66 42 81 30 17 -12 15 -19 -37 -106 -112 -190 -210
-413 -263 -602 -27 -95 -29 -97 -76 -126 -27 -17 -52 -30 -56 -30 -4 1 -24 25
-45 55 -47 69 -86 91 -124 73 -38 -18 -54 -53 -41 -89 14 -40 35 -49 114 -49
42 0 64 -4 59 -9 -18 -17 -159 -59 -220 -66 l-60 -7 -30 62 c-46 96 -87 120
-139 79 -19 -15 -26 -30 -26 -53 0 -38 22 -61 65 -71 71 -16 71 -17 1 -41 -38
-13 -90 -36 -115 -52 l-46 -28 -59 38 c-66 42 -113 49 -139 20 -23 -25 -21
-78 3 -102 24 -24 44 -25 100 -5 59 21 59 20 10 -30 l-44 -45 -74 0 c-83 0
-109 -10 -123 -47 -22 -58 36 -116 94 -94 15 6 42 32 60 58 39 58 124 151 151
165 16 9 15 4 -7 -21 -16 -19 -27 -45 -27 -62 0 -61 77 -92 121 -48 19 19 21
29 16 88 -4 36 -9 75 -12 87 -6 18 2 25 53 47 54 25 207 56 218 45 2 -3 -9
-31 -26 -63 -35 -67 -39 -114 -10 -140 29 -26 79 -24 102 4 25 32 23 62 -13
132 -17 34 -29 62 -27 64 2 2 32 10 68 19 36 9 102 34 147 56 46 21 83 37 83
34 0 -2 -14 -23 -30 -46 -38 -52 -39 -91 -4 -123 l27 -25 -13 -107 c-19 -151
-17 -478 4 -633 63 -467 236 -890 520 -1270 90 -122 312 -349 441 -453 394
-318 863 -513 1376 -573 172 -20 506 -15 662 10 587 93 1084 342 1488 746 219
218 368 427 505 705 174 355 258 691 271 1085 14 446 -74 853 -274 1258 -125
254 -269 457 -478 671 -411 422 -925 684 -1515 771 -157 23 -440 33 -585 20z
m500 -556 c737 -99 1376 -595 1659 -1290 57 -139 98 -286 127 -451 30 -167 33
-479 6 -648 -97 -615 -451 -1155 -970 -1477 -482 -300 -1077 -392 -1628 -253
-830 211 -1451 910 -1564 1764 -17 125 -19 402 -4 521 46 373 191 731 417
1030 74 97 247 276 341 352 460 371 1032 530 1616 452z"/>
<path d="M2783 4436 l-32 -65 52 -29 c29 -16 231 -123 450 -237 316 -165 397
-211 397 -227 0 -81 61 -176 134 -209 98 -44 223 -7 279 83 l30 48 793 0 794
0 0 75 0 75 -793 0 -792 0 -35 48 c-75 101 -179 127 -288 71 l-61 -32 -441
232 c-243 127 -445 231 -449 231 -4 0 -21 -29 -38 -64z"/>
<path d="M7103 3358 c-92 -137 -133 -271 -132 -431 0 -89 11 -144 63 -317 24
-78 31 -221 17 -321 -17 -120 -65 -295 -117 -427 -25 -63 -44 -115 -42 -117 2
-1 23 -13 48 -25 25 -12 66 -38 91 -56 71 -52 143 -81 306 -123 l41 -11 -26
-66 c-34 -86 -84 -142 -137 -154 -62 -15 -314 -12 -496 5 -272 26 -399 54
-399 87 0 9 -3 9 -12 0 -19 -19 21 -65 68 -78 122 -35 489 -68 701 -62 159 4
195 14 226 61 10 16 29 26 54 31 101 16 198 91 241 185 29 63 32 124 18 351
-10 148 0 198 49 247 l33 33 -62 0 c-35 0 -85 -7 -112 -15 -27 -8 -52 -15 -55
-15 -3 0 -2 21 2 48 13 78 10 215 -7 302 -21 115 -63 213 -151 359 -130 214
-181 363 -171 501 3 39 5 70 4 70 -1 0 -20 -28 -43 -62z"/>
</g>
</svg>
